<?xml version="1.0" standalone="no"?>
<!DOCTYPE svg PUBLIC "-//W3C//DTD SVG 20010904//EN"
 "http://www.w3.org/TR/2001/REC-SVG-20010904/DTD/svg10.dtd">
<svg version="1.0" xmlns="http://www.w3.org/2000/svg"
 width="960.000000pt" height="960.000000pt" viewBox="0 0 960.000000 960.000000"
 preserveAspectRatio="xMidYMid meet">
<metadata>
Created by potrace 1.13, written by Peter Selinger 2001-2015
</metadata>
<g transform="translate(0.000000,960.000000) scale(0.100000,-0.100000)"
fill="#000000" stroke="none">
<path d="M160 9581 c0 -11 5 -21 12 -23 6 -2 14 -24 17 -49 5 -37 9 -44 29
-44 14 0 29 -11 42 -32 10 -17 28 -37 39 -43 19 -10 21 -8 21 18 0 25 5 30 31
36 41 8 49 2 49 -41 0 -35 26 -103 40 -103 8 0 44 72 58 115 l9 30 7 -42 c5
-27 13 -43 22 -43 8 0 14 6 14 13 0 15 81 11 91 -5 3 -5 19 -8 35 -5 l29 4
-32 14 c-39 16 -43 29 -9 29 45 0 56 -10 56 -50 l0 -38 48 -4 c26 -2 62 0 80
6 l33 10 -5 55 c-3 31 -2 46 0 34 5 -20 12 -22 92 -25 89 -3 163 9 184 30 17
17 83 15 98 -3 6 -8 34 -15 63 -17 42 -2 54 -7 63 -25 l11 -23 12 27 c7 15 15
22 19 17 13 -18 69 -10 89 13 19 21 19 21 31 2 7 -10 21 -19 31 -19 11 0 35
-13 53 -30 31 -28 68 -40 68 -21 0 4 33 9 73 10 70 2 72 1 92 -29 17 -26 25
-30 54 -28 31 3 38 -2 64 -39 27 -41 31 -43 80 -45 29 0 57 -2 62 -3 6 -2 18
-3 28 -4 10 -1 17 -9 17 -21 0 -13 7 -20 19 -20 19 0 37 -32 33 -57 -2 -7 3
-13 10 -13 20 0 38 -48 28 -74 -6 -17 -4 -25 11 -34 25 -16 29 -15 29 6 0 11
8 26 18 35 16 15 21 15 38 2 10 -8 26 -15 34 -15 8 0 21 -13 28 -30 8 -18 21
-30 32 -30 10 0 20 -6 22 -12 6 -16 90 -11 100 5 5 8 13 6 26 -6 10 -9 24 -17
30 -17 7 0 18 -15 26 -33 14 -35 59 -77 82 -77 8 0 14 -6 14 -14 0 -22 19 -29
36 -15 9 8 18 9 22 3 4 -5 15 -15 25 -23 15 -12 20 -12 35 2 16 15 21 17 40
17 4 0 1 4 -6 9 -10 6 -3 10 23 15 36 7 64 -2 37 -11 -8 -3 -10 -9 -3 -16 5
-7 11 -21 13 -32 3 -17 6 -15 18 13 8 17 17 32 20 32 3 0 11 -13 18 -30 13
-27 18 -30 62 -30 27 0 52 -4 55 -10 3 -5 1 -10 -4 -10 -6 0 -11 -4 -11 -10 0
-5 18 -10 40 -10 37 0 41 -3 47 -30 6 -33 27 -40 38 -12 6 13 11 9 21 -23 7
-22 13 -31 13 -20 1 18 3 18 25 -5 13 -14 21 -31 18 -37 -2 -7 3 -13 12 -13 9
0 16 -8 16 -17 0 -13 2 -15 8 -5 11 17 72 -8 90 -37 7 -12 22 -21 34 -21 12 0
28 -6 37 -14 9 -8 28 -26 43 -39 16 -15 35 -23 46 -20 10 2 24 -3 31 -11 15
-17 46 -22 36 -6 -3 6 4 10 16 10 12 0 19 -3 16 -7 -14 -13 17 -33 53 -33 20
0 65 -3 99 -6 58 -7 61 -8 61 -34 0 -24 3 -26 31 -22 21 3 36 -1 49 -16 10
-11 32 -26 49 -33 17 -8 31 -21 31 -29 0 -9 15 -21 33 -28 45 -16 47 -16 47
16 0 21 2 24 10 12 8 -13 10 -12 10 4 0 16 6 18 43 13 23 -2 36 -3 29 0 -10 4
-10 8 -1 19 6 8 9 25 7 39 -3 15 -1 25 6 25 8 0 11 51 11 167 0 130 4 180 17
223 10 30 18 90 20 132 1 43 5 72 10 65 6 -9 8 -9 8 2 0 10 15 12 73 6 39 -4
79 -13 87 -20 13 -11 68 -23 140 -31 14 -1 42 -9 62 -18 21 -9 64 -16 97 -16
43 0 60 -4 65 -15 3 -9 18 -15 37 -15 18 0 37 -7 44 -17 20 -27 32 -7 28 44
-4 45 -3 49 23 61 43 19 54 15 54 -18 0 -28 2 -30 41 -30 l41 0 -4 63 -3 62
45 -3 45 -4 -35 31 c-19 16 -38 30 -42 31 -21 1 -5 20 17 20 29 0 31 10 10 50
-12 23 -22 30 -45 30 -28 0 -30 2 -30 40 0 33 -3 40 -20 40 -14 0 -20 7 -20
21 0 18 -6 20 -42 19 -80 -3 -98 0 -115 20 -10 11 -23 20 -30 20 -8 0 -13 14
-13 40 0 33 3 40 20 40 11 0 20 5 20 10 0 6 -8 10 -18 10 -20 0 -52 29 -52 47
0 5 -18 24 -39 41 -28 23 -50 32 -75 32 -20 0 -36 5 -36 10 0 6 5 10 10 10 6
0 3 15 -7 33 -13 24 -18 28 -21 15 -2 -10 -7 -18 -12 -18 -4 0 -10 -9 -13 -20
-3 -11 -10 -20 -16 -20 -14 0 -15 47 -1 55 15 10 12 35 -5 35 -8 0 -15 -7 -15
-15 0 -8 -4 -15 -10 -15 -5 0 -10 7 -10 15 0 13 -260 15 -2200 15 -2164 0
-2200 0 -2200 -19z"/>
<path d="M6400 9590 c0 -5 -18 -10 -40 -10 -37 0 -40 -2 -40 -29 0 -20 -6 -30
-20 -34 -15 -4 -20 -14 -20 -39 0 -30 -4 -34 -37 -45 -28 -8 -40 -9 -45 0 -11
18 -39 -13 -38 -42 4 -60 0 -68 -40 -86 -22 -10 -37 -22 -34 -26 3 -5 0 -17
-5 -26 -7 -12 -11 -13 -11 -5 0 9 -11 4 -31 -12 -17 -14 -36 -26 -43 -26 -15
0 -49 -67 -41 -81 4 -5 -3 -9 -14 -9 -14 0 -21 -6 -21 -19 0 -14 -5 -18 -20
-14 -16 4 -20 0 -20 -18 1 -27 23 -62 33 -52 4 3 7 0 7 -9 0 -22 -29 -18 -58
9 -15 14 -37 23 -58 23 -18 0 -39 3 -48 6 -13 5 -16 -2 -16 -40 0 -25 5 -46
10 -46 6 0 10 -9 10 -20 0 -17 -7 -20 -40 -20 -35 0 -43 4 -58 30 -9 16 -20
30 -24 30 -13 0 -9 -25 7 -46 17 -22 20 -54 5 -54 -5 0 -10 -15 -10 -33 0 -34
-20 -87 -32 -87 -5 0 -8 -9 -8 -20 0 -17 -7 -20 -40 -20 -33 0 -40 -3 -40 -20
0 -17 7 -20 40 -20 45 0 51 -14 24 -55 -21 -32 -15 -79 11 -83 11 -2 27 -10
36 -18 9 -8 24 -12 33 -8 9 3 16 1 16 -5 0 -6 6 -11 13 -11 7 0 18 -9 25 -20
13 -21 42 -28 42 -10 0 6 9 1 20 -10 11 -11 29 -20 40 -20 11 0 20 -4 20 -10
0 -20 90 -9 173 20 47 17 99 30 115 30 16 0 32 6 35 13 3 7 30 19 60 26 31 7
61 19 68 27 7 8 19 12 27 9 7 -3 26 2 40 10 43 24 154 65 174 65 11 0 26 7 34
15 9 8 25 15 38 15 12 0 31 7 42 15 10 8 29 15 42 15 27 0 150 47 172 65 8 7
28 15 44 19 16 4 47 16 68 26 21 10 53 22 71 25 18 4 37 11 42 15 6 3 36 15
67 24 32 10 60 22 64 27 3 5 16 9 29 9 13 0 26 4 30 9 3 5 29 17 58 27 28 9
61 23 72 30 11 8 29 14 40 14 12 0 25 4 30 9 6 4 35 17 65 27 30 10 57 21 60
24 3 3 25 12 49 19 25 7 59 23 75 35 17 11 40 23 51 24 11 2 24 8 30 13 5 5
22 9 37 9 15 0 37 9 48 20 11 11 41 26 68 32 26 7 60 23 76 36 16 13 35 21 43
17 9 -3 17 3 20 15 4 14 11 19 23 15 10 -3 39 7 68 24 28 16 53 27 56 24 7 -8
76 26 76 37 0 8 75 27 130 32 15 2 29 12 35 26 5 12 15 22 21 22 7 0 14 7 18
15 3 9 18 15 35 15 16 0 33 5 36 11 4 5 19 15 33 20 18 7 22 13 14 18 -19 12
-3 44 20 38 18 -5 48 16 48 34 0 5 -451 9 -1155 9 -763 0 -1155 -3 -1155 -10z"/>
<path d="M9545 9190 c-111 -49 -171 -71 -214 -81 -28 -6 -51 -15 -51 -20 0 -5
-10 -9 -22 -9 -25 0 -107 -27 -123 -40 -5 -4 -26 -11 -45 -15 -35 -7 -223 -66
-350 -110 -177 -61 -379 -127 -410 -134 -19 -4 -46 -13 -59 -20 -13 -7 -56
-21 -95 -31 -39 -10 -116 -34 -171 -53 -160 -55 -196 -67 -260 -85 -33 -9 -62
-20 -65 -23 -3 -3 -30 -12 -60 -19 -30 -7 -59 -16 -65 -20 -5 -4 -57 -21 -115
-39 -58 -18 -121 -39 -140 -46 -19 -7 -78 -26 -130 -43 -108 -35 -144 -47
-215 -72 -83 -30 -157 -48 -215 -54 -35 -4 -60 -12 -70 -23 -17 -21 -69 -47
-120 -62 -50 -14 -165 -55 -237 -84 -34 -14 -81 -28 -104 -32 -88 -15 -159
-68 -159 -119 0 -13 -4 -28 -10 -31 -13 -8 -13 -82 0 -87 6 -2 13 -50 15 -107
3 -57 9 -111 14 -120 16 -29 24 -130 12 -144 -7 -9 -8 -42 -3 -100 7 -79 6
-87 -10 -87 -35 0 -77 130 -56 175 9 19 9 28 0 37 -7 7 -12 39 -12 71 0 45 -4
63 -17 73 -15 10 -16 16 -6 32 14 24 20 93 9 111 -5 8 -4 16 4 21 9 6 9 13 1
28 -6 11 -9 27 -6 34 3 7 -4 31 -15 53 -11 21 -20 50 -20 62 0 13 -5 23 -10
23 -6 0 -22 12 -35 26 -26 28 -60 26 -68 -4 -2 -9 -2 0 0 21 3 23 1 37 -6 37
-6 0 -11 -4 -11 -10 0 -5 -9 -10 -20 -10 -11 0 -20 5 -20 10 0 6 -5 10 -11 10
-15 0 -2 -72 14 -82 9 -5 7 -12 -5 -25 -17 -16 -18 -16 -18 15 0 18 -4 32 -9
32 -5 0 -11 9 -14 20 -3 11 -10 20 -16 20 -17 0 -13 -37 4 -44 10 -4 15 -20
15 -51 0 -37 -3 -45 -19 -45 -20 0 -38 -42 -21 -48 5 -2 19 -11 30 -20 19 -15
20 -21 9 -51 -10 -28 -10 -36 1 -39 7 -3 -2 -11 -21 -19 -23 -10 -35 -11 -37
-3 -3 8 -8 8 -17 0 -10 -8 -41 -5 -117 11 -56 12 -121 24 -143 27 -22 2 -42 8
-45 12 -3 4 -40 12 -83 18 -42 7 -85 16 -95 21 -9 5 -44 14 -77 21 -110 21
-311 67 -375 86 -83 23 -119 27 -136 14 -20 -17 -18 -59 16 -460 16 -179 36
-413 45 -520 14 -166 32 -356 50 -525 18 -169 18 -203 -1 -213 -28 -14 -176
-34 -289 -38 -101 -3 -175 -19 -175 -37 0 -5 -13 -7 -30 -3 -22 4 -30 2 -30
-8 0 -8 5 -16 12 -18 9 -3 7 -14 -6 -42 -23 -48 -34 -112 -18 -102 8 5 12 -2
12 -21 2 -66 10 -191 16 -233 3 -25 8 -92 9 -150 2 -58 6 -177 9 -265 5 -153
-3 -169 -19 -40 -5 32 -10 44 -15 35 -4 -8 -4 -42 1 -75 5 -36 4 -64 -2 -69
-5 -6 -9 12 -9 50 0 42 -6 68 -20 89 -27 41 -25 55 7 55 14 0 23 3 19 8 -4 4
-11 7 -15 7 -4 0 -24 11 -44 25 -25 17 -35 30 -30 40 8 19 13 199 7 223 -3 9
-11 17 -19 17 -9 0 -15 24 -20 85 -6 70 -4 89 9 110 22 34 21 36 -24 29 -36
-6 -40 -4 -40 14 0 11 -5 22 -11 24 -5 2 -7 11 -3 21 6 17 7 17 20 0 12 -17
15 -16 41 10 15 15 22 27 15 27 -17 0 -15 29 3 36 8 4 15 15 15 25 0 13 7 19
21 19 11 0 17 5 14 10 -8 13 -55 13 -55 1 0 -9 -15 -15 -65 -27 -16 -4 -17 -3
-5 5 13 10 13 11 0 11 -10 0 -11 3 -3 8 6 4 12 21 14 37 5 61 2 65 -41 65 -45
0 -58 -26 -15 -32 31 -4 21 -22 -17 -32 -21 -5 -32 -1 -45 14 -18 21 -43 27
-43 10 0 -5 -17 -10 -39 -10 -37 0 -39 -1 -43 -37 -7 -53 2 -103 18 -103 16 0
19 -46 3 -55 -15 -10 -51 26 -46 46 6 23 -11 49 -33 49 -10 0 -21 4 -25 10 -3
5 -12 7 -19 4 -7 -3 -16 2 -19 10 -4 9 -16 16 -27 16 -14 0 -20 7 -20 23 0 16
3 18 9 8 6 -10 19 -12 45 -7 47 9 46 20 -4 35 -22 6 -40 18 -40 25 0 13 -21
26 -41 26 -5 0 -9 -9 -9 -20 0 -11 6 -20 13 -20 14 0 16 -6 17 -83 1 -38 4
-47 15 -43 8 3 17 1 20 -5 4 -5 0 -12 -9 -15 -19 -7 -9 -35 13 -32 10 2 14 -2
12 -12 -11 -36 -12 -133 -2 -143 6 -6 11 -19 11 -29 0 -10 6 -21 13 -23 7 -3
13 -25 14 -52 1 -26 6 -49 12 -51 6 -2 11 -19 11 -37 0 -37 16 -56 23 -28 2
10 3 -11 3 -47 -1 -36 3 -103 9 -150 24 -177 7 -656 -24 -694 -6 -7 -8 -33 -5
-63 5 -35 2 -60 -9 -84 -9 -19 -18 -61 -21 -94 -20 -235 -22 -295 -14 -345 6
-30 11 -135 12 -232 0 -98 2 -178 3 -178 1 0 13 5 27 11 31 15 49 2 77 -52 27
-54 25 -104 -5 -124 -22 -15 -26 -14 -60 6 -20 11 -36 25 -36 30 0 4 11 19 24
32 31 31 25 65 -10 65 -21 0 -24 -5 -25 -37 -1 -48 -4 -66 -23 -131 -9 -30
-25 -86 -35 -125 -38 -143 -51 -187 -60 -204 -5 -9 -12 -43 -15 -75 -3 -31
-12 -71 -21 -88 -20 -41 -19 -91 3 -111 9 -8 40 -24 67 -34 28 -11 65 -34 84
-51 18 -18 37 -32 42 -32 15 0 78 -47 125 -94 26 -25 58 -46 72 -48 17 -2 28
-11 32 -25 3 -12 14 -32 26 -45 36 -40 125 -118 134 -118 6 0 10 -6 10 -14 0
-17 86 -103 122 -122 21 -11 87 -14 300 -15 440 -1 463 0 451 12 -22 22 -150
50 -255 56 -76 4 -108 10 -108 18 0 14 22 25 50 25 10 0 35 9 57 20 197 100
588 67 690 -58 18 -22 -2 -52 -35 -53 -15 0 -36 -4 -47 -9 l-20 -9 20 -1 c68
-5 191 -9 253 -7 26 0 67 0 92 -2 25 -1 72 -2 105 -2 37 0 69 -6 84 -15 17
-12 26 -13 34 -5 6 6 42 11 79 11 61 0 68 -2 68 -19 0 -11 -4 -23 -10 -26 -5
-3 -10 -18 -10 -32 0 -19 4 -24 16 -19 13 5 14 1 9 -27 -4 -17 -11 -36 -16
-41 -5 -6 -9 -17 -9 -26 0 -14 12 -10 68 18 l67 34 210 -6 c155 -5 213 -10
220 -20 12 -15 156 -26 545 -41 80 -3 186 -8 235 -10 173 -9 341 -15 510 -20
94 -3 240 -7 325 -10 85 -3 297 -10 470 -15 173 -6 336 -12 361 -15 94 -11
322 -7 329 5 5 9 39 10 124 5 l116 -7 0 196 c0 180 -1 196 -17 196 -17 1 -17
1 0 11 39 23 15 30 -95 27 -109 -3 -113 -4 -116 -26 -3 -19 -8 -21 -40 -17
-20 2 -282 7 -582 10 -300 4 -653 8 -785 10 -132 1 -226 -1 -210 -5 17 -4 24
-8 17 -9 -7 0 -10 -5 -7 -11 3 -5 30 -10 60 -10 30 0 56 -4 59 -9 3 -5 3 -23
0 -40 -5 -23 -14 -33 -40 -41 -45 -15 -80 -10 -76 12 1 9 -2 19 -8 23 -5 3
-10 -1 -10 -9 0 -41 -75 -62 -107 -30 -14 14 -17 14 -25 1 -5 -10 -16 -13 -30
-9 -14 3 -19 2 -14 -6 5 -8 0 -12 -13 -12 -12 0 -21 4 -21 9 0 5 -9 11 -20 14
-15 4 -20 14 -20 40 0 20 -4 38 -9 41 -5 3 -7 -16 -5 -43 3 -43 1 -50 -19 -55
-32 -8 -39 -7 -32 4 4 6 -5 10 -20 10 -27 0 -36 13 -39 55 0 14 -5 25 -10 25
-4 0 -5 -15 -2 -33 5 -28 3 -35 -16 -44 -71 -35 -97 -18 -101 62 -1 25 -5 45
-9 45 -5 0 -8 -7 -8 -15 0 -8 -4 -15 -10 -15 -5 0 -10 -4 -10 -10 0 -5 6 -10
14 -10 9 0 12 -8 8 -26 -2 -14 -8 -21 -11 -15 -8 13 -72 5 -81 -10 -11 -17
-20 16 -20 71 0 35 5 52 16 58 27 15 -17 21 -159 23 l-127 1 0 41 c1 40 6 112
30 417 5 74 17 227 25 340 9 113 18 228 21 255 4 28 6 61 5 75 -2 61 4 67 64
62 31 -3 55 0 55 5 0 5 6 10 13 10 6 0 32 3 57 6 25 4 173 9 330 13 157 4 272
10 255 14 -16 3 -133 3 -260 -1 -126 -4 -291 -8 -365 -10 l-135 -2 1 48 0 48
-214 -8 -215 -7 7 111 c5 73 4 111 -2 111 -6 0 -12 -10 -15 -22 -4 -23 -4 -23
-15 2 -6 14 -11 19 -11 12 -1 -8 -9 -12 -18 -10 -26 5 -62 -38 -69 -82 -6 -39
-24 -56 -24 -23 0 13 -3 14 -12 5 -9 -9 -9 -15 0 -24 8 -8 6 -17 -9 -36 -18
-23 -24 -25 -105 -23 -55 2 -84 -1 -80 -8 4 -6 -13 -9 -46 -8 -38 1 -52 -2
-51 -10 2 -9 -15 -13 -60 -14 -34 0 -73 -2 -87 -4 -133 -15 -254 -20 -390 -15
l-65 3 55 7 c30 5 71 6 90 4 30 -3 32 -2 10 5 -48 17 -269 6 -262 -13 8 -20
-29 -26 -160 -26 -95 0 -138 4 -140 12 -3 7 -29 11 -79 9 -83 -2 -112 -8 -104
-22 4 -5 -3 -9 -15 -9 -12 0 -18 5 -15 10 3 6 -3 10 -15 10 -12 0 -18 -5 -15
-10 4 -6 -10 -10 -35 -10 -25 0 -39 4 -35 10 9 15 -36 12 -69 -5 -32 -17 -96
-20 -96 -5 0 6 -7 10 -15 10 -8 0 -15 -4 -15 -10 0 -5 -4 -10 -10 -10 -5 0 -6
8 -3 17 5 12 2 15 -9 10 -22 -8 -28 12 -28 83 0 32 -5 62 -10 65 -6 3 -7 18
-4 33 4 20 3 23 -5 13 -8 -12 -11 -11 -20 10 -19 47 -51 162 -46 167 3 3 0 11
-5 17 -19 23 -39 344 -64 1040 -6 176 -16 364 -21 413 -4 29 -1 42 8 42 9 0 9
2 -1 9 -11 6 -11 17 -4 45 8 26 7 36 -1 36 -8 0 -7 3 2 9 11 7 11 9 0 14 -12
5 -12 7 0 15 9 7 10 11 2 17 -9 5 -9 10 -1 20 5 7 11 49 13 94 1 44 5 81 10
81 4 0 7 7 7 15 0 9 7 18 15 21 8 4 15 12 15 20 0 7 9 18 20 24 11 6 20 16 20
23 0 14 114 67 143 67 10 0 26 4 36 10 10 5 52 15 92 21 41 6 82 15 91 20 18
10 157 25 311 35 74 4 97 9 97 20 0 8 10 15 23 15 12 1 46 2 75 4 33 1 57 7
63 16 6 10 40 16 118 20 82 5 114 11 126 23 12 12 35 16 86 16 38 0 69 4 69
10 0 5 31 9 73 9 39 0 87 2 105 5 17 3 44 8 60 9 117 15 262 41 289 52 17 8
33 10 35 5 3 -8 105 13 116 24 2 3 13 1 23 -4 12 -7 19 -6 21 2 2 6 26 13 54
14 27 1 102 13 167 25 93 17 122 27 142 46 17 18 37 26 72 28 50 3 144 22 178
35 17 7 126 19 230 25 17 1 50 7 74 14 24 7 70 14 101 16 31 1 66 8 77 13 11
6 23 9 25 6 3 -2 37 2 77 11 40 8 104 15 142 15 39 0 79 5 90 11 11 5 70 10
132 11 65 0 115 5 119 11 3 6 40 11 82 11 42 1 76 4 76 9 0 7 39 9 135 7 22 0
69 -1 104 -1 35 0 59 -4 53 -8 -7 -4 8 -12 33 -19 45 -12 50 -20 45 -65 -1
-10 7 -25 17 -32 10 -7 15 -16 11 -20 -3 -4 0 -22 8 -40 8 -19 14 -48 14 -64
0 -16 5 -31 11 -33 6 -2 13 -15 15 -28 15 -94 22 -127 27 -140 3 -8 8 -49 11
-90 3 -41 9 -100 15 -130 9 -50 16 -155 27 -410 2 -52 9 -120 15 -150 7 -30
12 -96 13 -145 1 -50 5 -96 9 -102 4 -7 12 -76 18 -155 5 -78 14 -162 20 -186
10 -48 15 -437 5 -492 -3 -19 -8 -53 -11 -75 -2 -24 -12 -47 -25 -57 -11 -9
-20 -21 -20 -26 0 -10 -60 -42 -80 -42 -6 0 -23 -9 -37 -20 -15 -11 -41 -20
-62 -20 -20 0 -45 -7 -55 -15 -11 -8 -34 -16 -50 -17 -25 -1 -22 -2 14 -8 50
-8 58 -6 -75 -14 -77 -5 -79 -6 -71 -13 8 -9 190 -5 366 7 74 5 243 14 375 20
132 6 277 13 323 16 l82 6 0 1064 0 1065 -21 -12 c-15 -8 -18 -14 -11 -21 21
-21 -32 -87 -70 -88 -22 0 -22 -8 -4 -51 16 -38 14 -111 -5 -177 -10 -35 -16
-43 -31 -39 -13 4 -18 0 -18 -14 0 -10 7 -19 15 -19 14 0 15 -14 11 -97 -3
-54 -6 -101 -6 -105 0 -5 -5 -8 -11 -8 -6 0 -8 7 -5 16 5 14 4 15 -9 4 -18
-15 -20 -46 -4 -56 8 -4 7 -9 -2 -14 -8 -6 -13 -39 -15 -102 -2 -67 -9 -110
-25 -153 -32 -86 -59 -289 -40 -308 16 -16 13 -48 -8 -93 -14 -29 -18 -52 -14
-91 5 -49 4 -53 -15 -53 -17 0 -22 -8 -28 -45 -3 -25 -10 -45 -15 -45 -5 0
-14 -10 -20 -22 -5 -13 -21 -28 -34 -35 -22 -10 -25 -9 -25 8 0 10 -4 19 -9
19 -9 0 -17 57 -26 165 -2 28 -13 133 -25 235 -12 102 -24 208 -26 235 -3 28
-9 79 -14 115 -5 36 -14 130 -20 210 -6 80 -15 152 -19 160 -4 8 -8 42 -9 74
-1 33 -7 65 -12 71 -6 7 -12 32 -14 56 -2 24 -9 89 -15 144 -23 188 -37 168
132 190 226 29 280 39 285 54 6 17 -82 10 -251 -20 -62 -11 -131 -23 -155 -26
l-43 -6 3 34 c3 38 4 39 163 63 55 8 182 27 283 42 l182 28 0 603 0 603 -24
10 c-14 5 -32 26 -42 46 l-18 37 -17 -22 c-20 -24 -72 -30 -63 -7 9 24 -60 35
-193 31 -117 -4 -123 -3 -123 15 0 11 5 20 11 20 5 0 7 5 3 11 -4 8 -9 7 -14
-2 -10 -16 -73 -16 -78 -1 -6 20 -29 14 -50 -13 -23 -29 -32 -32 -32 -10 0 8
-7 15 -15 15 -8 0 -15 4 -15 10 0 5 -11 17 -24 25 -21 14 -31 14 -65 4 -27 -8
-41 -18 -41 -29 0 -10 -7 -23 -15 -30 -17 -14 -39 -4 -31 15 5 13 -12 35 -26
35 -4 0 -8 -8 -9 -17 0 -13 -3 -11 -10 6 -14 36 -22 18 -20 -44 1 -53 0 -55
-24 -55 -16 0 -25 -6 -25 -15 0 -19 -11 -19 -36 0 -18 14 -18 14 9 15 17 0 27
5 27 15 0 11 -11 15 -40 15 -29 0 -40 -4 -40 -15 0 -21 -17 -19 -30 5 -12 22
-46 27 -53 8 -3 -10 -9 -8 -24 5 -29 25 -53 22 -53 -8 0 -17 -8 -29 -24 -37
-31 -14 -56 -4 -56 21 0 18 -10 19 -137 23 -116 3 -140 2 -151 -11 -11 -14 -5
-16 58 -19 62 -3 70 -5 70 -22 0 -18 -7 -20 -80 -20 l-80 0 0 40 0 40 -40 0
c-22 0 -40 5 -40 10 0 6 -17 10 -39 10 -34 0 -41 4 -54 32 -12 25 -17 29 -22
17 -3 -9 -5 -20 -4 -25 4 -23 -3 -34 -21 -34 -11 0 -20 5 -20 10 0 6 -18 10
-40 10 l-40 0 0 45 c0 25 -4 45 -8 45 -5 0 -17 -18 -28 -40 -24 -50 -39 -51
-51 -3 -9 40 -33 57 -33 24 0 -30 -19 -35 -26 -6 -3 14 -12 25 -20 25 -10 0
-14 13 -14 45 0 25 -4 45 -10 45 -16 0 -12 58 6 85 16 25 44 24 44 -1 0 -8 9
-14 20 -14 12 0 20 7 20 16 0 10 6 14 15 10 8 -3 28 7 46 21 26 22 28 28 15
35 -10 6 -16 22 -16 43 0 41 20 46 60 15 28 -22 71 -26 101 -10 31 17 22 30
-21 30 l-40 0 0 40 c0 38 2 40 30 41 52 2 55 4 65 27 7 15 18 22 37 22 18 0
28 5 28 15 0 8 8 15 19 15 25 0 32 30 24 102 -5 54 -5 58 16 58 18 0 21 -6 21
-39 0 -22 -6 -42 -12 -45 -22 -9 19 -34 47 -28 28 5 43 21 28 31 -5 3 -12 14
-16 24 -5 14 -1 17 22 17 40 0 58 24 36 47 -16 16 -16 17 1 30 11 8 31 17 47
20 15 3 27 9 27 14 0 5 13 9 29 9 15 0 44 11 63 24 28 19 38 21 51 11 26 -19
21 -36 -7 -29 -14 3 -33 1 -43 -5 -15 -9 -11 -10 23 -11 22 0 49 7 60 15 18
14 18 15 1 26 -18 10 -18 12 -1 30 11 12 30 19 52 19 21 0 45 8 56 19 12 10
44 24 71 31 28 8 61 20 73 28 13 9 35 17 49 18 14 2 33 9 42 18 9 8 33 17 54
21 20 4 40 11 43 16 3 5 16 9 30 9 14 0 37 6 52 14 15 7 43 17 62 21 19 4 38
12 41 16 3 5 31 14 61 19 31 5 69 15 85 23 15 8 41 17 57 21 17 4 41 15 55 25
14 10 39 19 55 19 15 0 31 4 35 10 3 6 24 14 46 18 21 4 57 15 80 24 70 30 80
33 97 31 9 -1 19 3 23 9 3 5 15 10 26 10 14 0 19 7 19 30 0 32 -15 37 -55 20z
m-1225 -2175 c0 -11 11 -15 40 -15 35 0 40 -3 40 -24 0 -15 7 -26 19 -29 14
-3 18 -11 14 -25 -4 -15 -16 -22 -51 -27 -26 -3 -66 -13 -90 -21 -23 -8 -60
-14 -81 -14 -21 0 -51 -4 -67 -10 -28 -9 -139 -30 -269 -51 -33 -5 -78 -13
-100 -19 -22 -5 -67 -11 -100 -14 -33 -3 -87 -11 -120 -17 -33 -6 -82 -12
-110 -14 -58 -5 -155 -25 -170 -36 -12 -9 -267 -49 -340 -53 -27 -2 -33 -1
-12 1 28 3 37 9 37 24 0 13 7 19 24 19 14 0 31 7 40 15 8 8 23 14 33 14 17 -1
17 -2 1 -6 -10 -2 -18 -11 -18 -19 0 -19 37 -18 48 3 5 9 16 14 25 10 8 -3 23
3 34 12 37 35 60 42 74 25 12 -14 14 -14 26 2 7 10 13 25 13 33 0 14 16 16
112 13 121 -3 143 -7 133 -21 -3 -5 0 -13 6 -17 8 -4 10 9 8 44 -2 28 -2 48 0
46 2 -2 13 3 23 13 17 15 19 15 38 -2 20 -18 20 -17 20 25 0 36 2 41 15 30 8
-7 12 -16 9 -21 -3 -5 9 -9 25 -9 17 0 31 -5 31 -12 0 -6 13 1 30 17 16 15 27
31 25 35 -13 22 29 32 119 28 52 -1 98 0 102 5 4 4 22 7 39 7 19 0 39 8 50 20
16 17 31 20 117 20 78 0 100 3 104 15 4 8 17 15 30 15 15 0 24 -6 24 -15z
m-2154 -427 c1 -32 5 -62 9 -67 11 -18 -33 -31 -105 -31 -51 0 -69 -3 -64 -12
4 -6 3 -9 -2 -6 -5 4 -47 -2 -94 -12 -47 -10 -113 -21 -148 -25 l-63 -7 5 62
c4 69 17 90 44 74 19 -11 55 -7 47 6 -3 5 9 5 26 0 26 -8 35 -6 46 8 12 16 14
16 27 0 16 -22 26 -23 26 -3 0 19 14 19 33 0 8 -8 33 -17 56 -21 l41 -7 0 41
c0 23 4 43 9 46 5 4 12 25 16 49 12 71 24 75 58 15 21 -38 30 -69 33 -110z
m-1920 -2775 c9 -43 21 -83 44 -147 16 -45 20 -71 15 -108 -4 -26 -11 -50 -16
-53 -12 -8 -57 22 -101 66 -32 32 -37 42 -32 69 4 19 17 37 36 48 35 21 51 68
31 97 -17 26 -17 55 2 55 8 0 17 -12 21 -27z m2562 -309 l3 -31 -122 -7 c-74
-5 -125 -4 -131 2 -5 5 -8 20 -6 33 3 23 8 24 93 30 154 10 160 9 163 -27z
m-1532 -524 c28 0 36 -5 49 -34 16 -33 16 -34 -10 -60 -60 -60 -114 -68 -158
-23 -16 15 -32 27 -36 27 -11 0 -22 56 -15 74 6 16 61 26 108 20 16 -2 43 -4
62 -4z m396 -7 c10 -10 5 -13 -23 -13 -19 0 -86 -18 -149 -40 -62 -21 -117
-37 -121 -35 -11 7 -9 78 3 92 14 17 272 13 290 -4z m-609 -5 c2 -7 1 -23 -4
-35 -6 -17 -19 -23 -63 -28 -31 -4 -67 -4 -81 -1 -13 3 -33 1 -44 -5 -25 -16
-49 -5 -57 26 -11 46 6 53 130 54 83 1 115 -2 119 -11z m2911 -570 c-5 -8 -2
-9 9 -5 10 4 16 2 14 -4 -2 -13 40 -22 47 -10 7 10 95 2 119 -11 13 -7 23 -6
30 1 18 18 72 13 92 -9 25 -28 28 -54 7 -73 -42 -37 -112 -12 -112 40 0 13 -6
23 -14 23 -12 0 -13 -6 -4 -31 12 -36 9 -41 -28 -40 -56 2 -69 4 -80 12 -6 5
-18 3 -29 -5 -23 -16 -74 -7 -89 17 -9 15 -7 21 9 34 20 15 20 15 -2 10 -13
-3 -26 -1 -29 4 -3 5 0 9 6 9 7 0 9 7 6 16 -4 12 -1 14 14 9 11 -4 20 -3 19 2
-3 15 1 23 12 23 5 0 7 -5 3 -12z m749 -38 c15 -14 -3 -50 -24 -50 -11 0 -17
5 -14 10 3 6 -3 10 -14 10 -11 0 -23 -5 -26 -11 -5 -7 -15 -5 -31 6 -23 15
-25 14 -34 -9 -9 -25 -30 -44 -30 -28 0 15 -30 23 -49 12 -36 -19 -55 28 -24
62 16 18 27 19 128 13 60 -4 114 -11 118 -15z"/>
<path d="M705 7580 c-3 -5 -25 -18 -49 -29 -24 -10 -47 -24 -50 -30 -4 -6 -22
-17 -40 -25 -44 -18 -83 -57 -91 -89 -4 -15 -17 -32 -29 -39 -35 -18 -67 -51
-81 -85 -8 -18 -19 -33 -25 -33 -13 0 -34 -17 -58 -45 -9 -11 -31 -33 -48 -50
-17 -17 -40 -49 -50 -70 -10 -22 -26 -47 -35 -56 -9 -9 -20 -31 -24 -48 -3
-17 -11 -33 -16 -36 -5 -4 -9 -16 -9 -29 0 -12 -4 -26 -9 -31 -4 -6 -13 -30
-19 -55 -11 -43 -10 -46 19 -72 24 -22 36 -27 57 -21 30 7 42 20 42 45 0 9 11
25 24 35 13 11 33 34 43 51 22 35 58 66 89 76 15 5 20 13 17 29 -3 14 2 29 11
36 22 18 20 31 -5 31 -16 0 -19 4 -14 23 8 23 43 69 60 76 5 2 22 16 36 31 15
14 31 24 38 22 16 -5 14 15 -3 21 -21 8 -8 53 20 66 30 13 31 33 2 31 -81 -7
-61 22 107 155 13 11 25 25 25 32 0 6 8 14 18 17 27 9 76 63 64 70 -6 4 -13 2
-17 -4z"/>
<path d="M2544 6841 c4 -6 14 -11 22 -11 19 0 18 -16 -2 -24 -8 -3 -22 1 -30
9 -9 8 -25 15 -37 15 -16 0 -18 -3 -9 -12 7 -7 12 -25 12 -42 0 -28 0 -29 -20
-11 -11 10 -20 13 -20 7 0 -7 5 -12 10 -12 6 0 10 -9 10 -20 0 -16 -7 -20 -30
-20 -28 0 -30 -3 -30 -36 0 -39 31 -77 76 -95 13 -4 24 -15 24 -23 0 -8 18
-29 41 -47 22 -17 45 -41 50 -53 9 -21 20 -40 53 -89 21 -33 14 -47 -12 -24
-23 21 -42 22 -42 2 0 -15 -43 -21 -112 -17 -39 3 -98 -25 -108 -52 -4 -13
-17 -26 -26 -30 -11 -4 -14 -10 -9 -14 6 -4 16 -19 22 -33 21 -48 75 -66 221
-73 95 -5 168 -36 216 -93 24 -28 26 -36 15 -49 -11 -14 -9 -19 11 -34 36 -27
15 -46 -28 -25 -36 18 -113 32 -157 29 -16 -2 -43 2 -58 8 -22 9 -31 8 -37 -1
-4 -7 -40 -17 -79 -21 -54 -6 -79 -14 -97 -31 -23 -22 -24 -22 -44 -4 -11 10
-20 24 -20 31 0 7 -5 14 -10 16 -6 2 -13 27 -17 56 -7 59 -14 68 -42 52 -12
-6 -22 -6 -25 -1 -4 5 0 12 6 14 9 4 9 6 1 6 -17 1 -43 -28 -43 -48 0 -10 11
-33 25 -52 64 -87 64 -89 58 -154 -5 -50 -2 -68 16 -103 12 -24 30 -46 39 -49
9 -4 23 -13 31 -21 8 -8 24 -11 36 -8 36 9 102 -26 135 -72 16 -23 30 -46 30
-52 0 -5 5 -10 12 -10 6 0 22 -10 34 -21 21 -20 24 -20 39 -5 11 10 22 13 33
8 26 -12 57 -9 56 6 -3 37 -5 42 -17 42 -8 0 -24 11 -37 25 -13 14 -29 25 -36
25 -24 0 -113 51 -132 75 -11 14 -24 25 -29 25 -11 0 -53 55 -53 70 0 14 27
13 32 -2 7 -19 186 -21 212 -3 18 13 50 6 66 -15 9 -11 109 -60 125 -60 8 0
15 -4 15 -10 0 -14 49 -60 73 -69 16 -6 26 -2 40 16 17 22 18 26 4 41 -9 10
-17 45 -20 87 -9 111 -23 197 -41 239 -9 21 -16 61 -16 88 0 55 -37 140 -70
160 -11 7 -20 20 -20 30 0 9 -4 20 -10 23 -16 10 -41 71 -39 96 4 42 -1 70
-10 65 -5 -3 -11 1 -15 9 -3 8 -1 15 3 15 13 0 -5 72 -21 81 -9 6 -6 9 10 9
28 0 28 7 -3 32 -14 11 -25 28 -25 38 0 9 -6 23 -14 30 -8 6 -16 21 -18 33 -2
14 -16 28 -38 38 -26 13 -39 28 -51 60 -12 31 -23 45 -39 47 -14 2 -20 0 -16
-7z"/>
<path d="M1310 6441 c-9 -5 -45 -19 -80 -32 -36 -12 -76 -31 -90 -41 -15 -12
-26 -15 -28 -9 -6 19 -20 12 -15 -8 3 -11 -6 -29 -21 -46 -27 -29 -51 -98 -41
-115 10 -16 45 -11 94 12 25 13 48 26 51 29 3 4 23 9 45 12 22 3 72 11 110 17
39 7 95 9 125 6 30 -4 92 -6 137 -6 47 1 84 -3 88 -9 7 -12 48 -15 59 -4 8 8
22 11 104 17 46 3 68 10 77 22 13 18 10 44 -5 44 -5 0 -11 8 -14 18 -9 28 -63
52 -119 53 -29 0 -74 4 -101 8 -30 5 -59 4 -77 -2 -24 -9 -33 -8 -57 10 -23
17 -49 22 -128 27 -56 4 -106 2 -114 -3z"/>
<path d="M1596 6083 c-4 -4 -24 -8 -44 -9 -20 0 -73 -2 -117 -4 -44 -2 -90 0
-102 4 -14 5 -23 3 -23 -3 0 -6 -5 -11 -11 -11 -7 0 -22 -10 -34 -22 -12 -13
-34 -33 -49 -45 -30 -24 -31 -31 -11 -56 11 -16 32 -19 136 -23 133 -5 259
-34 259 -60 0 -10 12 -14 40 -14 22 0 40 -4 40 -10 0 -15 77 -12 83 3 3 7 3
25 0 40 -5 23 -2 27 20 27 37 0 50 21 35 56 -7 16 -18 35 -25 42 -7 7 -13 20
-13 27 0 8 -17 21 -37 30 -21 9 -46 21 -55 26 -21 11 -82 12 -92 2z"/>
<path d="M1941 5946 c-6 -7 -8 -16 -4 -19 3 -4 -3 -7 -15 -7 -15 0 -24 -8 -28
-25 -5 -19 -18 -28 -60 -42 -38 -12 -54 -22 -54 -34 0 -19 26 -33 35 -19 9 15
25 12 25 -5 0 -8 -7 -15 -15 -15 -9 0 -15 -6 -14 -12 2 -7 -1 -28 -5 -47 -6
-24 -4 -36 5 -41 11 -8 -6 -11 -106 -23 -23 -3 -20 -4 12 -6 23 0 44 -5 47
-10 3 -4 16 -6 29 -4 14 3 29 -2 37 -12 11 -13 10 -23 -8 -63 -21 -45 -27
-122 -10 -122 4 0 8 -8 8 -19 0 -20 27 -48 37 -38 3 4 1 12 -5 20 -15 18 -10
42 18 79 14 18 24 36 22 41 -1 4 4 7 12 7 7 0 26 10 41 21 14 12 40 23 56 25
16 2 38 8 49 14 10 5 34 10 54 10 25 0 36 5 41 19 4 13 12 17 29 14 43 -9 66
13 66 61 0 42 -1 44 -35 50 -19 4 -39 14 -44 24 -9 16 -11 16 -39 0 -44 -26
-152 -22 -152 6 0 26 36 95 52 100 10 2 18 13 18 24 0 11 6 22 13 25 24 9 -9
28 -55 32 -30 3 -50 0 -57 -9z"/>
<path d="M6439 5776 c-3 -3 -63 -8 -135 -11 -71 -3 -144 -7 -161 -9 -20 -3
-33 0 -33 7 0 8 -3 7 -9 -1 -4 -8 -12 -13 -17 -12 -12 2 -195 -19 -264 -30
-30 -5 -89 -15 -130 -21 -41 -6 -80 -15 -86 -20 -6 -5 -19 -7 -28 -3 -9 3 -22
1 -29 -4 -7 -6 -40 -15 -72 -21 -73 -11 -97 -21 -155 -64 -62 -44 -83 -67 -99
-107 -19 -49 -37 -193 -24 -197 6 -2 7 -22 2 -51 -4 -28 -3 -52 3 -59 5 -7 12
-39 15 -73 3 -33 12 -65 19 -71 8 -6 14 -20 14 -30 0 -11 7 -19 15 -19 8 0 15
-6 15 -13 0 -7 21 -24 48 -38 43 -22 58 -24 192 -24 80 -1 150 -4 156 -8 7 -4
17 0 24 8 8 10 30 15 64 14 28 0 76 2 106 5 30 2 99 7 154 11 54 3 106 10 116
15 9 5 39 7 66 5 66 -5 114 4 114 21 0 10 14 14 49 14 26 0 61 4 77 9 16 6 55
15 86 21 32 6 65 18 73 27 9 8 22 12 30 9 20 -7 56 29 49 49 -4 8 -2 15 3 15
5 0 15 23 21 51 9 39 9 96 -3 267 -15 202 -17 219 -41 255 -15 23 -31 37 -39
33 -8 -3 -24 3 -37 13 -13 10 -39 21 -58 24 -19 4 -46 9 -60 13 -14 3 -28 3
-31 0z"/>
<path d="M2055 5441 c-11 -5 -31 -23 -44 -40 -15 -19 -33 -31 -47 -31 -36 0
-37 -16 -2 -33 38 -18 85 -6 98 27 5 11 9 15 9 9 1 -15 41 -18 41 -4 0 8 70
-7 111 -23 24 -10 30 16 12 52 -11 22 -26 35 -52 42 -42 12 -98 12 -126 1z"/>
<path d="M2450 5405 c-7 -8 -22 -15 -34 -15 -13 0 -33 -11 -46 -25 -13 -14
-29 -25 -37 -25 -21 0 -15 -47 9 -76 19 -21 23 -39 25 -107 3 -81 3 -82 -22
-82 -14 0 -25 6 -25 13 0 7 -15 12 -40 12 -29 0 -40 -4 -40 -15 0 -8 8 -15 18
-15 26 0 58 -25 44 -34 -6 -4 -46 -9 -89 -12 -47 -3 -81 -11 -87 -19 -8 -9
-42 -15 -106 -18 -56 -3 -96 -9 -98 -16 -2 -6 -20 -11 -41 -11 -20 0 -43 -6
-49 -12 -8 -8 -44 -14 -90 -15 -42 -1 -84 -2 -93 -2 -8 -1 -24 -7 -34 -15 -18
-13 -17 -15 20 -25 22 -6 57 -20 78 -31 21 -11 42 -18 47 -15 5 3 22 -1 37 -8
31 -16 191 -32 222 -22 11 3 22 18 26 35 7 33 45 47 86 32 13 -5 26 -10 29
-10 15 -1 68 -15 86 -22 21 -8 74 -103 74 -132 0 -9 12 -18 28 -21 34 -7 83
-48 65 -54 -20 -7 -15 -30 8 -46 21 -15 59 -12 59 4 0 5 5 9 11 9 6 0 25 11
41 25 24 20 33 23 44 14 11 -9 17 -4 29 24 8 20 15 43 15 51 0 8 5 18 11 22 6
3 9 17 6 30 -2 13 -1 21 3 19 13 -8 20 22 26 109 8 98 0 164 -24 195 -9 13
-26 35 -38 49 -37 49 -57 102 -50 140 3 20 1 42 -6 49 -6 7 -8 16 -5 20 4 3
-1 19 -10 34 -19 33 -62 40 -83 14z"/>
<path d="M701 5265 c0 -11 5 -31 12 -45 11 -21 10 -31 -8 -65 -11 -22 -23 -42
-26 -45 -3 -3 -5 -44 -4 -91 l2 -86 47 -45 c25 -25 46 -50 46 -56 0 -13 50
-53 59 -48 3 2 5 25 3 50 -3 31 -9 46 -18 46 -8 0 -14 11 -15 28 0 15 -3 38
-5 52 -3 14 1 36 8 49 10 19 10 25 1 28 -21 7 -14 31 10 35 12 2 26 13 32 26
5 12 15 22 22 22 7 0 13 3 13 8 0 13 -75 67 -89 64 -7 -2 -11 0 -8 5 2 4 1 18
-4 31 -7 20 -12 21 -30 12 -11 -7 -22 -10 -23 -8 -1 2 -7 14 -13 28 -10 22
-12 22 -12 5z"/>
<path d="M61 5017 c-15 -19 -21 -108 -11 -179 6 -39 17 -68 37 -92 25 -32 33
-36 74 -36 26 0 51 6 57 13 18 21 18 54 -1 75 -10 10 -42 66 -71 123 -29 57
-58 105 -63 106 -6 2 -15 -3 -22 -10z"/>
<path d="M2854 4708 c-5 -7 -18 -30 -28 -51 -14 -26 -22 -34 -28 -25 -6 10 -8
9 -8 -3 0 -9 -7 -20 -16 -23 -10 -4 -14 -12 -10 -22 4 -9 0 -22 -7 -28 -7 -6
-19 -29 -26 -51 -7 -22 -19 -47 -26 -55 -7 -8 -16 -30 -20 -48 -4 -18 -15 -38
-26 -45 -10 -6 -19 -16 -19 -22 0 -6 -9 -16 -20 -23 -11 -7 -20 -17 -20 -23 0
-10 -53 -64 -152 -154 -18 -16 -36 -29 -40 -27 -5 1 -8 -2 -8 -7 0 -5 -12 -12
-26 -15 -15 -4 -34 -15 -43 -25 -24 -28 -95 -52 -132 -44 -17 3 -34 2 -38 -4
-10 -15 -114 -30 -146 -21 -19 5 -32 3 -36 -4 -6 -9 -17 -9 -46 0 -21 6 -60
13 -88 16 -51 5 -65 8 -147 24 -49 10 -81 28 -73 42 6 9 -19 31 -31 29 -5 -1
-11 -1 -14 1 -3 1 -16 3 -29 6 -13 2 -43 13 -67 23 -23 11 -45 17 -48 14 -3
-3 -19 5 -37 18 -22 15 -34 19 -37 11 -2 -7 -8 -12 -13 -12 -4 0 -6 6 -3 14 3
8 -3 16 -16 19 -17 4 -20 2 -16 -10 12 -30 81 -135 113 -171 18 -21 33 -42 33
-49 0 -7 6 -16 14 -20 7 -4 28 -30 47 -58 18 -27 42 -62 53 -76 12 -14 28 -36
36 -49 19 -28 108 -120 116 -120 4 0 4 8 2 18 -9 33 62 58 88 32 6 -6 21 -6
42 2 27 10 34 10 41 0 4 -7 21 -12 37 -10 21 2 28 -1 26 -11 -2 -8 3 -18 10
-23 16 -10 101 1 109 15 4 6 19 5 42 -2 46 -15 92 -51 78 -60 -6 -4 -13 -22
-15 -41 -2 -19 -9 -36 -15 -38 -6 -2 -11 -12 -11 -23 0 -16 7 -19 40 -19 33 0
40 -3 40 -20 0 -13 7 -20 20 -20 36 0 19 -35 -21 -45 -19 -5 -29 -16 -36 -38
-5 -20 -19 -37 -36 -45 -34 -17 -45 -41 -26 -56 20 -17 41 -56 29 -56 -5 0
-27 16 -48 35 -28 25 -42 31 -50 23 -8 -8 -5 -16 13 -30 13 -10 22 -25 19 -32
-3 -9 6 -18 25 -24 17 -6 31 -15 31 -20 0 -5 9 -12 20 -15 11 -3 19 -9 18 -14
-4 -11 34 -53 43 -47 11 6 -2 44 -15 44 -6 0 -24 12 -40 26 -27 24 -28 26 -10
39 11 8 31 15 46 15 20 0 27 -5 30 -22 2 -16 9 -22 21 -20 9 2 17 -2 17 -8 0
-5 -7 -10 -15 -10 -8 0 -15 -4 -15 -10 0 -5 3 -10 8 -10 4 0 12 -11 19 -25 9
-20 8 -25 -3 -25 -24 0 -16 -38 12 -57 26 -18 33 -25 81 -79 16 -17 35 -34 43
-37 8 -4 25 -14 38 -23 20 -15 22 -15 22 1 0 9 -9 19 -20 22 -11 3 -20 12 -20
20 0 10 6 13 15 9 9 -3 25 0 36 7 17 10 22 9 32 -8 6 -11 13 -40 15 -65 2 -25
9 -49 15 -53 8 -6 6 -7 -5 -3 -13 4 -18 0 -18 -15 0 -28 25 -84 47 -106 10
-10 24 -31 31 -47 7 -15 21 -30 31 -33 11 -3 34 -27 53 -54 18 -27 36 -49 41
-49 4 0 7 -6 7 -14 0 -8 14 -26 30 -40 17 -14 29 -31 28 -38 -2 -7 7 -14 20
-16 12 -2 22 -10 22 -18 0 -8 7 -14 16 -14 11 0 14 -6 9 -20 -5 -16 -2 -20 15
-20 17 0 20 -4 15 -20 -4 -14 -2 -20 8 -20 10 0 13 -7 10 -20 -4 -14 0 -20 12
-20 11 0 15 -5 12 -14 -3 -8 2 -16 14 -19 13 -3 17 -11 13 -21 -3 -9 -1 -16 5
-16 6 0 16 -10 20 -22 13 -32 101 -129 111 -123 5 3 7 20 5 38 -2 17 -7 74
-10 125 -3 52 -8 99 -11 104 -4 6 0 14 7 19 12 8 12 10 0 18 -11 7 -12 13 -3
23 9 11 9 18 -1 27 -9 11 -9 14 0 18 9 3 10 10 3 23 -6 12 -7 21 0 25 5 3 7
12 4 20 -3 7 4 23 15 34 35 35 22 61 -28 61 -22 0 -75 108 -61 125 6 7 5 16
-2 23 -9 9 -8 12 6 12 15 0 11 9 -20 43 -22 24 -43 41 -48 39 -5 -3 -6 7 -2
22 6 26 -18 69 -71 124 -7 7 -13 19 -13 25 0 7 -6 23 -13 37 -7 14 -19 46 -26
73 -8 26 -18 47 -22 47 -5 0 -9 9 -9 19 0 11 -4 23 -10 26 -5 3 -10 19 -10 35
0 16 -6 35 -13 42 -7 7 -29 44 -48 81 -18 38 -42 83 -51 101 -34 66 -51 393
-28 516 6 30 10 90 8 132 -1 54 2 81 13 94 8 9 13 25 11 34 -1 9 25 47 58 85
47 53 60 75 60 100 0 18 6 38 14 44 7 6 21 33 31 59 10 26 27 60 38 75 11 16
21 48 22 70 3 62 -19 96 -41 65z"/>
<path d="M0 4240 c1 -210 1 -215 19 -193 10 12 20 20 23 18 2 -2 5 8 6 22 1
15 8 36 15 47 7 12 19 41 26 66 7 25 17 59 22 77 12 39 3 58 -44 100 -18 16
-41 40 -50 53 -16 23 -17 15 -17 -190z"/>
<path d="M190 4184 c-1 -5 -3 -33 -6 -63 -3 -38 0 -59 10 -70 9 -10 15 -37 15
-71 0 -56 26 -145 51 -175 26 -31 -30 -43 -66 -14 -8 6 -14 4 -18 -7 -11 -28
-7 -35 37 -54 102 -47 274 -197 318 -280 10 -19 39 -57 63 -85 45 -50 45 -50
43 -20 -1 16 -10 38 -19 47 -10 10 -18 28 -18 41 0 12 -9 33 -20 47 -11 14
-20 30 -20 36 0 6 -7 17 -14 24 -8 6 -20 28 -27 48 -7 20 -23 50 -36 66 -16
19 -22 35 -17 50 10 31 12 32 44 8 16 -12 34 -22 40 -22 5 0 10 -4 10 -9 0
-11 39 -25 47 -17 3 3 -11 22 -31 43 -20 21 -43 52 -51 69 -8 17 -26 39 -40
50 -14 10 -25 24 -25 31 0 7 -5 13 -11 13 -5 0 -16 15 -24 33 -8 17 -26 46
-40 62 -14 17 -25 36 -25 43 0 6 -5 12 -11 12 -7 0 -9 11 -6 28 4 22 -3 37
-42 79 -31 35 -58 55 -79 59 -18 4 -32 3 -32 -2z"/>
<path d="M9577 4080 c-11 -13 -29 -20 -52 -20 -19 0 -35 -4 -35 -10 0 -14 -23
-12 -55 4 -17 9 -22 16 -13 19 7 3 -6 6 -30 6 -25 1 -57 -7 -80 -20 -24 -14
-29 -19 -12 -14 55 15 78 17 85 4 6 -9 2 -11 -13 -7 -12 4 -24 3 -27 -2 -2 -4
-78 -14 -167 -21 -156 -13 -159 -14 -78 -17 47 -2 148 2 225 8 164 13 248 15
264 6 7 -5 11 8 11 38 0 25 -1 46 -3 46 -1 0 -10 -9 -20 -20z"/>
<path d="M9550 3964 c0 -16 -7 -25 -22 -28 -48 -10 -124 -19 -155 -19 -18 0
-30 -4 -27 -9 3 -5 -14 -5 -37 -2 -36 6 -41 5 -36 -9 8 -22 -5 -24 -168 -32
-77 -4 -151 -9 -165 -11 -21 -3 -300 -17 -515 -27 -31 -1 -50 -7 -51 -14 -3
-26 -4 -26 -20 -7 -14 17 -15 17 -10 1 3 -10 6 -23 6 -28 0 -6 4 -8 8 -5 5 3
6 -8 4 -25 -2 -16 -9 -30 -16 -30 -34 -5 -66 -6 -219 -7 -100 -1 -166 -6 -162
-11 3 -5 69 -8 151 -6 96 2 142 -1 136 -7 -6 -6 -41 -10 -79 -10 -50 0 -60 -2
-38 -8 18 -4 -10 -6 -67 -4 -53 1 -109 -1 -125 -6 l-28 -8 30 -2 c20 -2 24 -4
11 -7 -10 -3 -28 0 -40 6 -19 11 -59 10 -176 -2 -38 -4 -39 -3 -10 3 25 5 10
7 -52 7 -48 0 -85 -4 -82 -8 7 -11 -41 -23 -66 -16 -17 4 -20 0 -20 -24 l0
-29 153 0 c83 0 364 7 622 15 757 23 799 24 1038 31 l227 6 0 -48 c0 -27 4
-121 10 -209 13 -223 22 -401 30 -605 4 -113 7 69 8 520 l1 695 -24 1 c-20 2
-25 -3 -25 -22z"/>
<path d="M6265 2038 c-27 -18 -58 -38 -69 -45 -11 -6 -32 -23 -47 -37 -15 -14
-35 -26 -45 -26 -9 0 -15 -3 -11 -6 8 -8 -59 -54 -78 -54 -8 0 -15 -7 -15 -15
0 -8 -7 -15 -15 -15 -8 0 -15 -4 -15 -9 0 -5 -9 -11 -21 -14 -11 -3 -23 -15
-26 -26 -4 -14 -13 -21 -30 -21 -13 0 -22 -4 -19 -8 10 -16 159 -14 199 3 38
16 39 16 32 -5 -6 -19 -2 -20 75 -20 45 0 91 5 102 11 17 9 24 8 32 -4 15 -20
118 -31 160 -17 18 6 44 22 56 35 21 23 50 34 50 19 0 -3 -9 -19 -20 -34 -11
-16 -17 -31 -12 -34 4 -2 52 -6 107 -7 78 -2 107 1 133 15 17 9 32 21 32 25 0
5 17 20 38 32 20 13 41 29 45 36 4 7 16 13 25 13 11 0 -5 -21 -45 -61 -35 -34
-63 -65 -63 -69 0 -4 53 -8 118 -9 64 -1 126 -4 137 -6 11 -3 115 -9 230 -15
116 -6 269 -15 340 -20 72 -5 184 -12 250 -14 l120 -4 50 64 c27 35 55 64 62
64 20 0 15 -14 -21 -56 -18 -21 -36 -48 -40 -60 -6 -20 -2 -21 70 -28 42 -3
105 -6 140 -6 57 0 65 3 83 28 39 51 43 54 54 43 7 -7 5 -18 -7 -35 -9 -14
-16 -30 -16 -36 0 -15 211 -13 231 3 9 7 19 22 23 35 9 28 13 28 145 18 l81
-6 14 35 c20 46 36 45 29 -1 -6 -36 -5 -37 20 -32 22 4 27 1 27 -14 0 -10 -6
-27 -12 -38 -8 -13 -9 -23 -3 -29 6 -5 60 -12 121 -16 l111 -6 16 32 c8 18 13
37 11 41 -10 15 254 12 270 -3 18 -16 25 -10 37 34 7 23 16 47 20 52 4 6 14
44 24 85 9 41 22 85 27 97 22 46 8 53 -112 53 -91 0 -110 -3 -110 -15 0 -23
-47 -19 -53 4 -4 17 -15 19 -101 20 -76 0 -98 -3 -103 -15 -7 -18 -53 -19 -53
-1 0 10 -26 16 -97 21 -90 6 -99 5 -115 -14 -21 -26 -44 -26 -51 0 -5 18 -14
20 -106 20 -56 0 -101 -4 -101 -9 0 -19 -31 -20 -47 -1 -15 17 -30 20 -111 20
-73 0 -94 -3 -98 -15 -9 -21 -31 -19 -44 5 -10 18 -21 20 -104 20 -74 0 -95
-3 -100 -15 -7 -19 -33 -19 -43 0 -13 23 -157 31 -189 11 -31 -21 -41 -20 -47
6 -5 18 -8 19 -21 8 -9 -7 -16 -8 -16 -2 0 5 -31 10 -70 11 -38 1 -70 -3 -70
-8 0 -15 -44 -22 -55 -7 -15 20 -181 28 -196 10 -15 -18 -39 -18 -39 0 0 16
-159 30 -175 15 -13 -13 -55 -11 -55 2 0 12 -165 8 -193 -5 -14 -6 -19 -4 -23
10 -4 16 -16 19 -77 21 -40 2 -85 -2 -101 -9 -23 -9 -30 -9 -37 4 -12 22 -133
24 -183 3 -37 -16 -38 -15 -31 5 6 19 2 20 -67 20 -67 0 -79 -3 -123 -32z"/>
<path d="M4444 1849 c-5 -8 -10 -52 -11 -99 -1 -47 -7 -128 -13 -180 -15 -130
-8 -165 38 -194 81 -52 110 -93 120 -167 17 -131 6 -214 -49 -367 -26 -75 -25
-79 25 -86 33 -5 49 -14 62 -34 30 -44 44 -73 44 -92 0 -24 32 -50 62 -50 30
0 154 -78 161 -102 3 -10 20 -20 41 -23 20 -4 36 -11 36 -15 0 -4 18 -12 40
-19 25 -7 50 -25 67 -47 64 -81 175 -184 199 -184 4 0 17 -9 28 -19 33 -31
116 -68 181 -81 33 -7 75 -21 92 -31 40 -22 109 -42 145 -41 15 0 30 -4 33 -9
4 -5 751 -9 1931 -9 l1924 0 0 460 0 460 -72 1 c-61 0 -337 19 -483 33 -22 2
-132 9 -245 15 -113 6 -221 13 -240 16 -19 2 -125 11 -235 20 -110 8 -245 20
-300 25 -55 6 -159 15 -230 20 -310 22 -415 30 -500 40 -85 9 -271 27 -535 50
-63 5 -207 19 -320 30 -113 11 -232 22 -265 24 -98 7 -458 39 -620 55 -55 5
-136 12 -180 16 -44 3 -89 8 -100 9 -11 2 -32 4 -47 5 -29 1 -102 67 -92 82 3
5 0 9 -5 9 -6 0 -11 5 -11 10 0 6 -11 23 -24 37 -16 17 -22 32 -17 40 10 19
112 102 134 109 9 3 17 9 17 14 0 4 11 11 25 14 14 4 25 11 25 16 0 6 5 10 10
10 6 0 55 29 109 65 54 36 103 65 108 65 6 0 20 14 33 30 13 17 29 30 36 30 7
0 15 4 18 9 4 5 -3 7 -14 4 -11 -3 -20 -1 -20 4 0 6 -33 10 -77 10 -113 -2
-692 12 -874 19 -128 6 -158 4 -165 -7z"/>
<path d="M4096 1765 c-16 -12 -20 -27 -19 -87 0 -124 2 -138 17 -138 8 0 16
-4 18 -9 2 -4 14 -12 28 -16 14 -4 22 -4 18 0 -4 5 0 13 8 20 10 7 17 29 19
56 1 24 6 57 10 72 7 26 4 39 -25 97 -10 20 -51 23 -74 5z"/>
<path d="M9243 1612 c-6 -4 -13 -16 -15 -26 -4 -27 42 -37 155 -34 87 3 92 4
95 26 2 12 -3 24 -10 26 -25 9 -213 15 -225 8z"/>
<path d="M4140 1480 c0 -5 5 -10 11 -10 6 0 3 -7 -5 -16 -19 -19 -21 -28 -3
-21 14 5 17 -54 3 -64 -13 -10 2 -42 15 -33 8 4 7 -1 -1 -16 -14 -26 -5 -54
15 -46 22 8 29 -12 10 -30 -19 -19 -14 -40 8 -38 9 1 15 -2 12 -6 -3 -5 -1
-11 3 -14 5 -3 8 -19 7 -36 -1 -16 1 -30 4 -30 3 0 7 -33 9 -72 2 -55 8 -77
22 -90 10 -9 20 -22 22 -29 6 -18 28 -1 28 21 0 10 -7 20 -15 23 -11 5 -13 22
-8 90 4 54 2 91 -5 103 -11 18 -11 17 -12 -6 l-1 -25 -14 25 c-18 31 -19 54
-2 44 10 -6 10 -4 0 7 -16 16 -17 33 -2 23 7 -4 9 0 5 14 -4 13 -1 22 9 26 8
3 15 11 15 18 0 10 -3 9 -9 -1 -8 -12 -12 -12 -26 3 -9 9 -15 23 -12 30 3 7 0
19 -6 25 -6 6 -10 27 -9 46 2 25 -4 42 -24 65 -28 31 -44 38 -44 20z"/>
</g>
</svg>
